<svg xmlns="http://www.w3.org/2000/svg" xmlns:xlink="http://www.w3.org/1999/xlink" xmlns:lucid="lucid" width="2232.34" height="1341.19"><g transform="translate(0 0)" lucid:page-tab-id="0_0"><path d="M0 0h2232.34v1341.2H0z" fill="#fff"/><path d="M908 160c17.67 0 32 17.9 32 40s-14.33 40-32 40h-96c-17.67 0-32-17.9-32-40s14.33-40 32-40z" stroke="#000" stroke-opacity="0" fill="#ff741d"/><use xlink:href="#a" transform="matrix(1,0,0,1,785,165) translate(39.626851851851946 41.711111111111094)"/><path d="M513.6 659.47a10.67 10.67 0 0 1 12.8 0l67.2 50.4a6 6 0 0 1 0 9.6l-67.2 50.4a10.67 10.67 0 0 1-12.8 0l-67.2-50.4a6 6 0 0 1 0-9.6z" stroke="#fe5900" stroke-width="4" fill="#fff"/><use xlink:href="#b" transform="matrix(1,0,0,1,445,659.6657287214615) translate(21.13024691358033 59.04444444444444)"/><path d="M860 240.5V438a12 12 0 0 1-12 12H613.34a12 12 0 0 0-12 12v33.66" stroke="#333" fill="none"/><path d="M860.5 240.5h-1v-.5h1z" stroke="#333" stroke-width=".05" fill="#333"/><path d="M601.34 510.43l-4.63-14.27H606z" stroke="#333" fill="#333"/><path d="M505.83 838h-73.8l-1.75.14-1.68.4-1.6.66-1.46.9-1.32 1.13-1.12 1.3-.9 1.48-.66 1.6-.4 1.68-.14 1.76v32.46h-2v-32.54l.16-2 .47-1.98.78-1.88 1.08-1.74 1.32-1.55 1.56-1.32 1.74-1.06 1.88-.78 2-.48 1.98-.16h73.88zM521 825.04l-.1 1.3h-2l.1-1.38V775h2z" stroke="#c92d39" stroke-width=".05" fill="#c92d39"/><path d="M520 774l1-.06v1.1h-2v-1.1z" fill="#c92d39"/><path d="M520 773.98l1.02-.07v1.15H519v-1.14zm-.98 1.02H521v-1.03l-.98.06-.98-.06z" stroke="#c92d39" stroke-width=".05" fill="#c92d39"/><path d="M420 896.76l-4.63-14.26h9.26z" fill="#c92d39"/><path d="M420 900l-6-18.5h12zm-3.26-16.5l3.26 10.03 3.26-10.03z" stroke="#c92d39" stroke-width=".05" fill="#c92d39"/><use xlink:href="#c" transform="matrix(1,0,0,1,505.8352972224241,826.334928141856) translate(0 14.222222222222207)"/><path d="M453.15 78.58a8 8 0 0 1 8-8h836.75a8 8 0 0 1 8 8v25.15a8 8 0 0 1-8 8H461.15a8 8 0 0 1-8-8z" stroke="#000" stroke-opacity="0" stroke-width="2" fill="#fff" fill-opacity="0"/><use xlink:href="#d" transform="matrix(1,0,0,1,457.14655278534315,74.57761197839864) translate(316.73283950617287 23.657777777777778)"/><path d="M709.44 110.4h347.9M709.47 110.4h-1.03M1057.3 110.4h1.03" stroke="#a9afb8" stroke-width="2" fill="none"/><path d="M453.15 119.73a8 8 0 0 1 8-8h837.7a8 8 0 0 1 8 8v2.85a8 8 0 0 1-8 8h-837.7a8 8 0 0 1-8-8z" stroke="#000" stroke-opacity="0" stroke-width="2" fill="#fff" fill-opacity="0"/><use xlink:href="#e" transform="matrix(1,0,0,1,457.1465527853436,115.73283593529744) translate(334.3197736625515 14.917037037037037)"/><use xlink:href="#f" transform="matrix(1,0,0,1,457.1465527853436,115.73283593529744) translate(378.4240946502058 14.917037037037037)"/><use xlink:href="#g" transform="matrix(1,0,0,1,457.1465527853436,115.73283593529744) translate(421.7636008230453 14.917037037037037)"/><use xlink:href="#h" transform="matrix(1,0,0,1,457.1465527853436,115.73283593529744) translate(434.2130864197531 14.917037037037037)"/><use xlink:href="#i" transform="matrix(1,0,0,1,457.1465527853436,115.73283593529744) translate(467.31257201646093 14.917037037037037)"/><use xlink:href="#j" transform="matrix(1,0,0,1,457.1465527853436,115.73283593529744) translate(484.3084567901235 14.917037037037037)"/><path d="M440 447.6a8 8 0 0 1 8-8h144a8 8 0 0 1 8 8v104.8a8 8 0 0 1-8 8H448a8 8 0 0 1-8-8z" stroke="#000" stroke-opacity="0" stroke-width="2" fill="#ff8839"/><use xlink:href="#k" transform="matrix(1,0,0,1,452,451.6) translate(12.47314814814824 28.27777777777781)"/><use xlink:href="#l" transform="matrix(1,0,0,1,452,451.6) translate(94.3731481481481 28.27777777777781)"/><use xlink:href="#m" transform="matrix(1,0,0,1,452,451.6) translate(37.6947530864198 52.54444444444444)"/><use xlink:href="#n" transform="matrix(1,0,0,1,452,451.6) translate(92.68796296296293 52.54444444444444)"/><use xlink:href="#o" transform="matrix(1,0,0,1,452,451.6) translate(20.870987654321056 76.81111111111107)"/><path d="M520.5 638.94h-1v-25.28h1zm0-49.54h-1v-28.5h1z" stroke="#3a414a" stroke-width=".05" fill="#3a414a"/><path d="M520.5 560.9h-1v-.5h1z" fill="#3a414a"/><path d="M520.52 560.94h-1.04v-.57h1.04zm-1-.52v.47h.96v-.48z" stroke="#3a414a" stroke-width=".05" fill="#3a414a"/><path d="M520 653.7l-4.63-14.26h9.26z" fill="#3a414a"/><path d="M520 655.33l-5.32-16.4h10.64zm-3.95-15.4L520 652.1l3.95-12.16z" stroke="#3a414a" stroke-width=".05" fill="#3a414a"/><use xlink:href="#p" transform="matrix(1,0,0,1,417.40030864197547,589.3963394980569) translate(0.0049999999999954525 16.177777777777752)"/><use xlink:href="#q" transform="matrix(1,0,0,1,417.40030864197547,589.3963394980569) translate(63.480308641975206 16.177777777777752)"/><use xlink:href="#r" transform="matrix(1,0,0,1,417.40030864197547,589.3963394980569) translate(107.23895061728379 16.177777777777752)"/><path d="M413.6 884.8a10.67 10.67 0 0 1 12.8 0l67.2 50.4a6 6 0 0 1 0 9.6l-67.2 50.4a10.67 10.67 0 0 1-12.8 0l-67.2-50.4a6 6 0 0 1 0-9.6z" stroke="#fe5900" stroke-width="4" fill="#fff"/><use xlink:href="#s" transform="matrix(1,0,0,1,345,885) translate(6.216358024691473 59.04444444444444)"/><use xlink:href="#t" transform="matrix(1,0,0,1,345,885) translate(69.69166666666669 59.04444444444444)"/><use xlink:href="#u" transform="matrix(1,0,0,1,345,885) translate(101.09228395061724 59.04444444444444)"/><path d="M340 1148a8 8 0 0 1 8-8h144a8 8 0 0 1 8 8v104a8 8 0 0 1-8 8H348a8 8 0 0 1-8-8z" stroke="#000" stroke-opacity="0" stroke-width="2" fill="#ff8839"/><use xlink:href="#v" transform="matrix(1,0,0,1,352,1152) translate(8.035493827160572 52.04444444444444)"/><path d="M420.5 1123.62h-1v-41.82h1zm0-66.08h-1v-57.7h1z" stroke="#3a414a" stroke-width=".05" fill="#3a414a"/><path d="M420 999.34l.5-.04v.55h-1v-.55z" fill="#3a414a"/><path d="M420 999.3l.52-.02v.6h-1.04v-.6zm-.48.53h.96v-.5l-.48.03-.48-.03z" stroke="#3a414a" stroke-width=".05" fill="#3a414a"/><path d="M420 1138.38l-4.63-14.26h9.26z" fill="#3a414a"/><path d="M420 1140l-5.32-16.38h10.64zm-3.95-15.38l3.95 12.14 3.95-12.14z" stroke="#3a414a" stroke-width=".05" fill="#3a414a"/><use xlink:href="#w" transform="matrix(1,0,0,1,399.27222222222224,1057.5354221144587) translate(0.004999999999999005 16.177777777777752)"/><path d="M536.1 941H499v-2h37.1zm45.4 0h-19.6v-2h19.6z" stroke="#c92d39" stroke-width=".05" fill="#c92d39"/><path d="M499.03 941h-1.1l.08-1-.08-1h1.1z" fill="#c92d39"/><path d="M499.06 941.02h-1.17l.08-1.02-.1-1.02h1.18zm-1.12-2l.1.98-.1.98H499V939z" stroke="#c92d39" stroke-width=".05" fill="#c92d39"/><path d="M596.76 940l-14.26 4.63v-9.26z" fill="#c92d39"/><path d="M600 940l-18.5 6v-12zm-16.5 3.26l10.03-3.26-10.03-3.26z" stroke="#c92d39" stroke-width=".05" fill="#c92d39"/><use xlink:href="#x" transform="matrix(1,0,0,1,536.1126525319075,927.8666666666667) translate(0.005000000000000782 16.177777777777752)"/><path d="M741.5 879v2H611.62v-2zm-168.1-11.04l.14 1.76.4 1.68.66 1.6.9 1.46 1.13 1.32 1.3 1.12.72.43v2.32l-.15-.06-1.74-1.08-1.55-1.32-1.32-1.56-1.06-1.74-.78-1.88-.48-2-.16-1.98V738.86h2z" stroke="#7ab648" stroke-width=".05" fill="#7ab648"/><path d="M573.4 738.9h-2v-.3l2-1.5z" fill="#7ab648"/><path d="M573.43 738.9h-2.05v-.3l2.05-1.54zm-2-.27v.23h1.95v-1.7z" stroke="#7ab648" stroke-width=".05" fill="#7ab648"/><path d="M756.76 880l-14.26 4.63v-9.26z" fill="#7ab648"/><path d="M760 880l-18.5 6v-12zm-16.5 3.26l10.03-3.26-10.03-3.26z" stroke="#7ab648" stroke-width=".05" fill="#7ab648"/><use xlink:href="#y" transform="matrix(1,0,0,1,578.6463905777351,867.8666666666667) translate(0.004999999999999005 16.177777777777752)"/><path d="M600 1167.92a9.06 9.06 0 0 1 7.94-9L752.06 1141a7.07 7.07 0 0 1 7.94 7v104a8 8 0 0 1-8 8H608a8 8 0 0 1-8-8z" stroke="#3a414a" fill="#fff"/><use xlink:href="#z" transform="matrix(1,0,0,1,605,1165) translate(22.281790123456872 36.911111111111126)"/><use xlink:href="#A" transform="matrix(1,0,0,1,605,1165) translate(48.06512345679017 61.17777777777775)"/><path d="M500.5 1200h82.62" stroke="#3a414a" fill="none"/><path d="M500.5 1200.5h-.5v-1h.5z" stroke="#3a414a" stroke-width=".05" fill="#3a414a"/><path d="M597.88 1200l-14.26 4.63v-9.27z" stroke="#3a414a" fill="#3a414a"/><path d="M680 1148.96V992a12 12 0 0 1 12-12h51.62" stroke="#3a414a" fill="none"/><path d="M680.5 1149.4l-1 .12v-.58h1z" stroke="#3a414a" stroke-width=".05" fill="#3a414a"/><path d="M758.38 980l-14.26 4.63v-9.26z" stroke="#3a414a" fill="#3a414a"/><path d="M760 884.5a8 8 0 0 1 8-8h144a8 8 0 0 1 8 8v104a8 8 0 0 1-8 8H768a8 8 0 0 1-8-8z" stroke="#000" stroke-opacity="0" stroke-width="2" fill="#ff8839"/><use xlink:href="#B" transform="matrix(1,0,0,1,772,888.4990620548724) translate(19.017283950617355 52.04444444444444)"/><path d="M920.5 936.5h105.1" stroke="#3a414a" fill="none"/><path d="M920.5 937h-.5v-1h.5z" stroke="#3a414a" stroke-width=".05" fill="#3a414a"/><path d="M1040.37 936.5l-14.26 4.63v-9.27z" stroke="#3a414a" fill="#3a414a"/><path d="M1113.6 881.3a10.67 10.67 0 0 1 12.8 0l67.2 50.4a6 6 0 0 1 0 9.6l-67.2 50.4a10.67 10.67 0 0 1-12.8 0l-67.2-50.4a6 6 0 0 1 0-9.6z" stroke="#fe5900" stroke-width="4" fill="#fff"/><use xlink:href="#C" transform="matrix(1,0,0,1,1045,881.4990620548724) translate(26.017283950617355 46.911111111111126)"/><use xlink:href="#D" transform="matrix(1,0,0,1,1045,881.4990620548724) translate(21.720061728395137 71.17777777777775)"/><path d="M1110.03 531.5l2 .48 1.87.78 1.74 1.07 1.55 1.32 1.32 1.55 1.07 1.74.77 1.9.47 1.97.16 2v331.86h-2V544.38l-.14-1.76-.4-1.67-.66-1.6-.9-1.47-1.12-1.3-1.32-1.13-1.47-.9-1.6-.66-1.68-.42-1.76-.14h-62.66v-2h62.74zm-491.53 1.84v-2h401.02v2z" stroke="#c92d39" stroke-width=".05" fill="#c92d39"/><path d="M1121 877.23l-1-.07-1 .07v-1.1h2z" fill="#c92d39"/><path d="M1121.03 877.25l-1.03-.06-1.03.05v-1.14h2.06zm-2-1.1v1.05l.97-.06.97.06v-1.04z" stroke="#c92d39" stroke-width=".05" fill="#c92d39"/><path d="M617.5 536.98l-14.26-4.64 14.26-4.63z" fill="#c92d39"/><path d="M618.5 538.36l-18.5-6.02 18.5-6zm-12.03-6.02l10.03 3.26v-6.5z" stroke="#c92d39" stroke-width=".05" fill="#c92d39"/><use xlink:href="#x" transform="matrix(1,0,0,1,1019.5169023491578,520.2111106573252) translate(0.005000000000000782 16.177777777777752)"/><path d="M1242.52 937.5h-43.5v-2h43.5zm58.98 0h-26v-2h26z" stroke="#7ab648" stroke-width=".05" fill="#7ab648"/><path d="M1199.03 937.5h-1.1l.08-1-.08-1h1.1z" fill="#7ab648"/><path d="M1199.06 937.52h-1.17l.08-1.02-.1-1.03h1.18zm-1.12-2l.1.98-.1.97h1.07v-1.95z" stroke="#7ab648" stroke-width=".05" fill="#7ab648"/><path d="M1316.76 936.5l-14.26 4.63v-9.27z" fill="#7ab648"/><path d="M1320 936.5l-18.5 6v-12zm-16.5 3.26l10.03-3.26-10.03-3.26z" stroke="#7ab648" stroke-width=".05" fill="#7ab648"/><use xlink:href="#y" transform="matrix(1,0,0,1,1242.5175658035125,924.3657287215391) translate(0.004999999999999005 16.177777777777752)"/><path d="M1320 884.5a8 8 0 0 1 8-8h144a8 8 0 0 1 8 8v104a8 8 0 0 1-8 8h-144a8 8 0 0 1-8-8z" stroke="#000" stroke-opacity="0" stroke-width="2" fill="#ff8839"/><use xlink:href="#E" transform="matrix(1,0,0,1,1332,888.4990620548724) translate(20.870987654321056 39.911111111111126)"/><use xlink:href="#F" transform="matrix(1,0,0,1,1332,888.4990620548724) translate(25.870370370370438 64.17777777777775)"/><path d="M1559.7 937h-79.2v-1h79.2zm203.92 0h-96.22v-1h96.22z" stroke="#3a414a" stroke-width=".05" fill="#3a414a"/><path d="M1480.5 937h-.5v-1h.5z" fill="#3a414a"/><path d="M1480.54 937.02h-.57v-1.05h.57zm-.5-1v.95h.45v-.95z" stroke="#3a414a" stroke-width=".05" fill="#3a414a"/><path d="M1778.38 936.5l-14.26 4.63v-9.27z" fill="#3a414a"/><path d="M1780 936.5l-16.38 5.32v-10.64zm-15.38 3.95l12.14-3.95-12.14-3.95z" stroke="#3a414a" stroke-width=".05" fill="#3a414a"/><use xlink:href="#G" transform="matrix(1,0,0,1,1559.7145665585124,924.3657287215391) translate(0.005000000000002558 16.177777777777752)"/><path d="M1780 884.5a8 8 0 0 1 8-8h144a8 8 0 0 1 8 8v104a8 8 0 0 1-8 8h-144a8 8 0 0 1-8-8z" stroke="#000" stroke-opacity="0" stroke-width="2" fill="#ff8839"/><use xlink:href="#G" transform="matrix(1,0,0,1,1792,888.4990620548724) translate(14.15833333333341 52.04444444444444)"/><path d="M940.5 200h243.12" stroke="#3a414a" fill="none"/><path d="M940.5 200.5h-.53l.03-.5-.02-.5h.53z" stroke="#3a414a" stroke-width=".05" fill="#3a414a"/><path d="M1198.38 200l-14.26 4.63v-9.26z" stroke="#3a414a" fill="#3a414a"/><path d="M1206.48 148a8 8 0 0 1 8-8h144a8 8 0 0 1 8 8v104a8 8 0 0 1-8 8h-144a8 8 0 0 1-8-8z" stroke="#000" stroke-opacity="0" stroke-width="2" fill="#ff8839"/><use xlink:href="#G" transform="matrix(1,0,0,1,1218.4767788748875,152) translate(14.15833333333341 52.04444444444444)"/><path d="M1286.48 260.5V328a12 12 0 0 0 12 12h205.14" stroke="#3a414a" fill="none"/><path d="M1286.98 260.5h-1v-.5h1z" stroke="#3a414a" stroke-width=".05" fill="#3a414a"/><path d="M1518.38 340l-14.26 4.63v-9.26z" stroke="#3a414a" fill="#3a414a"/><path d="M1593.6 284.8a10.67 10.67 0 0 1 12.8 0l67.2 50.4a6 6 0 0 1 0 9.6l-67.2 50.4a10.67 10.67 0 0 1-12.8 0l-67.2-50.4a6 6 0 0 1 0-9.6z" stroke="#fe5900" stroke-width="4" fill="#fff"/><use xlink:href="#b" transform="matrix(1,0,0,1,1525,285) translate(21.13024691358033 59.04444444444444)"/><path d="M1810.03 636.92l2 .16 1.98.47 1.9.78 1.74 1.07 1.55 1.32 1.3 1.55 1.08 1.75.78 1.88.48 1.98.15 2V858h-2V649.96l-.14-1.76-.4-1.68-.67-1.6-.9-1.47-1.13-1.3-1.3-1.13-1.48-.9-1.6-.66-1.7-.4-1.75-.14h-82.47v-2zm-208.9-9.28l.4 1.68.67 1.6.9 1.46 1.12 1.3 1.32 1.14 1.47.9 1.6.66 1.68.4 1.76.14h82.47v2h-82.54l-2-.16-1.98-.48-1.88-.78-1.74-1.06-1.55-1.33-1.32-1.54-1.07-1.74-.77-1.88-.47-2-.16-1.98V400.34h2v225.54z" stroke="#7ab648" stroke-width=".05" fill="#7ab648"/><path d="M1600 399.34l1-.07v1.1h-2v-1.1z" fill="#7ab648"/><path d="M1600 399.3l1.03-.05v1.14h-2.06v-1.15zm-.97 1.04h1.94v-1.04l-.97.06-.97-.06z" stroke="#7ab648" stroke-width=".05" fill="#7ab648"/><path d="M1822 873.26l-4.64-14.26h9.27z" fill="#7ab648"/><path d="M1822 876.5l-6.02-18.5H1828zm-3.27-16.5l3.26 10.03 3.25-10.03z" stroke="#7ab648" stroke-width=".05" fill="#7ab648"/><use xlink:href="#y" transform="matrix(1,0,0,1,1694.510446486204,625.7849663383012) translate(0.004999999999999005 16.177777777777752)"/><path d="M1756.1 341H1679v-2h77.1zm85.4 0h-59.6v-2h59.6z" stroke="#c92d39" stroke-width=".05" fill="#c92d39"/><path d="M1679.03 341h-1.1l.08-1-.08-1h1.1z" fill="#c92d39"/><path d="M1679.06 341.02h-1.17l.08-1.02-.1-1.02h1.18zm-1.12-2l.1.98-.1.98h1.07v-1.96z" stroke="#c92d39" stroke-width=".05" fill="#c92d39"/><path d="M1856.76 340l-14.26 4.63v-9.26z" fill="#c92d39"/><path d="M1860 340l-18.5 6v-12zm-16.5 3.26l10.03-3.26-10.03-3.26z" stroke="#c92d39" stroke-width=".05" fill="#c92d39"/><g><use xlink:href="#x" transform="matrix(1,0,0,1,1756.1126275319075,327.8666666666667) translate(0.005000000000000782 16.177777777777752)"/></g><path d="M920.5 936.5h63.12" stroke="#3a414a" fill="none"/><path d="M920.5 937h-.5v-1h.5z" stroke="#3a414a" stroke-width=".05" fill="#3a414a"/><path d="M998.38 936.5l-14.26 4.63v-9.27z" stroke="#3a414a" fill="#3a414a"/><path d="M600 918a8 8 0 0 1 8-8h84a8 8 0 0 1 8 8v44a8 8 0 0 1-8 8h-84a8 8 0 0 1-8-8z" stroke="#000" stroke-opacity="0" stroke-width="2" fill="#ff8839"/><g><use xlink:href="#H" transform="matrix(1,0,0,1,612,922) translate(-7.443827160493761 22.044444444444437)"/></g><path d="M700.5 940h43.12" stroke="#3a414a" fill="none"/><path d="M700.5 940.5h-.5v-1h.5z" stroke="#3a414a" stroke-width=".05" fill="#3a414a"/><path d="M758.38 940l-14.26 4.63v-9.26z" stroke="#3a414a" fill="#3a414a"/><path d="M1860 318a8 8 0 0 1 8-8h84a8 8 0 0 1 8 8v44a8 8 0 0 1-8 8h-84a8 8 0 0 1-8-8z" stroke="#000" stroke-opacity="0" stroke-width="2" fill="#ff8839"/><g><use xlink:href="#H" transform="matrix(1,0,0,1,1872,322) translate(-7.443827160493761 22.044444444444437)"/></g><path d="M1910 370.5v489.6" stroke="#3a414a" fill="none"/><path d="M1910.5 370.5h-1v-.5h1z" stroke="#3a414a" stroke-width=".05" fill="#3a414a"/><path d="M1910 874.88l-4.63-14.26h9.27z" stroke="#3a414a" fill="#3a414a"/><defs><path fill="#fff" d="M194-120c59 52 2 134-86 124-53-6-90-18-98-63l31-7c8 30 29 43 70 43 46 0 84-17 71-62-32-43-135-20-137-98-3-89 178-90 191-16l-30 9c-8-48-127-53-127 5 0 53 81 35 115 65" id="I"/><path fill="#fff" d="M51-54c-9 22 5 41 31 30L79-1C43 14 10-4 19-52l22-115H19l5-23h22l19-43h21l-9 43h35l-4 23H73" id="J"/><path fill="#fff" d="M165-48c-4 18 1 34 23 27l-3 20c-29 8-62 0-52-35h-2C116-14 99 4 63 4 30 4 8-16 8-49c0-68 71-67 138-67 10-26 0-56-31-54-26 1-42 9-47 31l-32-5c8-67 160-71 144 15-5 28-9 54-15 81zM42-50c3 52 80 24 89-6 7-12 7-24 11-38-47 1-103-4-100 44" id="K"/><path fill="#fff" d="M66-151c12-25 30-51 66-40l-6 26C45-176 58-65 38 0H6l36-190h30" id="L"/><g id="a"><use transform="matrix(0.09320987654320963,0,0,0.09320987654320963,0,0)" xlink:href="#I"/><use transform="matrix(0.09320987654320963,0,0,0.09320987654320963,22.37037037037031,0)" xlink:href="#J"/><use transform="matrix(0.09320987654320963,0,0,0.09320987654320963,31.691358024691272,0)" xlink:href="#K"/><use transform="matrix(0.09320987654320963,0,0,0.09320987654320963,50.3333333333332,0)" xlink:href="#L"/><use transform="matrix(0.09320987654320963,0,0,0.09320987654320963,61.42530864197516,0)" xlink:href="#J"/></g><path fill="#333" d="M205 0l-28-72H64L36 0H1l101-248h38L239 0h-34zm-38-99l-47-123c-12 45-31 82-46 123h93" id="M"/><path fill="#333" d="M117-194c89-4 53 116 60 194h-32v-121c0-31-8-49-39-48C34-167 62-67 57 0H25l-1-190h30c1 10-1 24 2 32 11-22 29-35 61-36" id="N"/><path fill="#333" d="M177-190C167-65 218 103 67 71c-23-6-38-20-44-43l32-5c15 47 100 32 89-28v-30C133-14 115 1 83 1 29 1 15-40 15-95c0-56 16-97 71-98 29-1 48 16 59 35 1-10 0-23 2-32h30zM94-22c36 0 50-32 50-73 0-42-14-75-50-75-39 0-46 34-46 75s6 73 46 73" id="O"/><path fill="#333" d="M100-194c63 0 86 42 84 106H49c0 40 14 67 53 68 26 1 43-12 49-29l28 8c-11 28-37 45-77 45C44 4 14-33 15-96c1-61 26-98 85-98zm52 81c6-60-76-77-97-28-3 7-6 17-6 28h103" id="P"/><path fill="#333" d="M210-169c-67 3-38 105-44 169h-31v-121c0-29-5-50-35-48C34-165 62-65 56 0H25l-1-190h30c1 10-1 24 2 32 10-44 99-50 107 0 11-21 27-35 58-36 85-2 47 119 55 194h-31v-121c0-29-5-49-35-48" id="Q"/><path fill="#333" d="M24 0v-261h32V0H24" id="R"/><path fill="#333" d="M85-194c31 0 48 13 60 33l-1-100h32l1 261h-30c-2-10 0-23-3-31C134-8 116 4 85 4 32 4 16-35 15-94c0-66 23-100 70-100zm9 24c-40 0-46 34-46 75 0 40 6 74 45 74 42 0 51-32 51-76 0-42-9-74-50-73" id="S"/><path fill="#333" d="M59-47c-2 24 18 29 38 22v24C64 9 27 4 27-40v-127H5v-23h24l9-43h21v43h35v23H59v120" id="T"/><g id="b"><use transform="matrix(0.05617283950617275,0,0,0.05617283950617275,0,0)" xlink:href="#M"/><use transform="matrix(0.05617283950617275,0,0,0.05617283950617275,13.48148148148146,0)" xlink:href="#N"/><use transform="matrix(0.05617283950617275,0,0,0.05617283950617275,24.716049382716008,0)" xlink:href="#O"/><use transform="matrix(0.05617283950617275,0,0,0.05617283950617275,35.95061728395056,0)" xlink:href="#P"/><use transform="matrix(0.05617283950617275,0,0,0.05617283950617275,47.185185185185105,0)" xlink:href="#Q"/><use transform="matrix(0.05617283950617275,0,0,0.05617283950617275,63.98086419753075,0)" xlink:href="#P"/><use transform="matrix(0.05617283950617275,0,0,0.05617283950617275,75.2154320987653,0)" xlink:href="#R"/><use transform="matrix(0.05617283950617275,0,0,0.05617283950617275,79.65308641975295,0)" xlink:href="#S"/><use transform="matrix(0.05617283950617275,0,0,0.05617283950617275,90.88765432098751,0)" xlink:href="#P"/><use transform="matrix(0.05617283950617275,0,0,0.05617283950617275,102.12222222222206,0)" xlink:href="#T"/></g><path fill="#333" d="M175 0L67-191c6 58 2 128 3 191H24v-248h59L193-55c-6-58-2-129-3-193h46V0h-61" id="U"/><path fill="#333" d="M140-251c80 0 125 45 125 126S219 4 139 4C58 4 15-44 15-125s44-126 125-126zm-1 214c52 0 73-35 73-88 0-50-21-86-72-86-52 0-73 35-73 86s22 88 72 88" id="V"/><g id="c"><use transform="matrix(0.04938271604938266,0,0,0.04938271604938266,0,0)" xlink:href="#U"/><use transform="matrix(0.04938271604938266,0,0,0.04938271604938266,12.79012345679011,0)" xlink:href="#V"/></g><path fill="#a9afb8" d="M115-3C79 11 28 4 28-45v-112H4v-33h27l15-45h31v45h36v33H77v99c-1 23 16 31 38 25v30" id="W"/><path fill="#a9afb8" d="M185-48c-13 30-37 53-82 52C43 2 14-33 14-96s30-98 90-98c62 0 83 45 84 108H66c0 31 8 55 39 56 18 0 30-7 34-22zm-45-69c5-46-57-63-70-21-2 6-4 13-4 21h74" id="X"/><path fill="#a9afb8" d="M133-34C117-15 103 5 69 4 32 3 11-16 11-54c-1-60 55-63 116-61 1-26-3-47-28-47-18 1-26 9-28 27l-52-2c7-38 36-58 82-57s74 22 75 68l1 82c-1 14 12 18 25 15v27c-30 8-71 5-69-32zm-48 3c29 0 43-24 42-57-32 0-66-3-65 30 0 17 8 27 23 27" id="Y"/><path fill="#a9afb8" d="M220-157c-53 9-28 100-34 157h-49v-107c1-27-5-49-29-50C55-147 81-57 75 0H25l-1-190h47c2 12-1 28 3 38 10-53 101-56 108 0 13-22 24-43 59-42 82 1 51 116 57 194h-49v-107c-1-25-5-48-29-50" id="Z"/><path fill="#a9afb8" d="M-4 44V30h207v14H-4" id="aa"/><path fill="#a9afb8" d="M182-130c37 4 62 22 62 59C244 23 116-4 24 0v-248c84 5 203-23 205 63 0 31-19 50-47 55zM76-148c40-3 101 13 101-30 0-44-60-28-101-31v61zm0 110c48-3 116 14 116-37 0-48-69-32-116-35v72" id="ab"/><path fill="#a9afb8" d="M190-63c-7 42-38 67-86 67-59 0-84-38-90-98-12-110 154-137 174-36l-49 2c-2-19-15-32-35-32-30 0-35 28-38 64-6 74 65 87 74 30" id="ac"/><path fill="#a9afb8" d="M147 0L96-86 75-71V0H25v-261h50v150l67-79h53l-66 74L201 0h-54" id="ad"/><path fill="#a9afb8" d="M135-194c87-1 58 113 63 194h-50c-7-57 23-157-34-157-59 0-34 97-39 157H25l-1-190h47c2 12-1 28 3 38 12-26 28-41 61-42" id="ae"/><path fill="#a9afb8" d="M88-194c31-1 46 15 58 34l-1-101h50l1 261h-48c-2-10 0-23-3-31C134-8 116 4 84 4 32 4 16-41 15-95c0-56 19-97 73-99zm17 164c33 0 40-30 41-66 1-37-9-64-41-64s-38 30-39 65c0 43 13 65 39 65" id="af"/><path fill="#a9afb8" d="M67-125c0 53 21 87 73 88 37 1 54-22 65-47l45 17C233-25 199 4 140 4 58 4 20-42 15-125 8-235 124-281 211-232c18 10 29 29 36 50l-46 12c-8-25-30-41-62-41-52 0-71 34-72 86" id="ag"/><path fill="#a9afb8" d="M160-152l-12 59h37v26h-43L128 0h-28l14-67H60L46 0H20l13-67H6v-26h33l13-59H15v-26h42l15-67h27l-15 67h54l15-67h27l-14 67h28v26h-34zm-81 0L66-93h55l12-59H79" id="ah"/><g id="d"><use transform="matrix(0.0728395061728395,0,0,0.0728395061728395,0,0)" xlink:href="#W"/><use transform="matrix(0.0728395061728395,0,0,0.0728395061728395,8.667901234567902,0)" xlink:href="#X"/><use transform="matrix(0.0728395061728395,0,0,0.0728395061728395,23.235802469135802,0)" xlink:href="#Y"/><use transform="matrix(0.0728395061728395,0,0,0.0728395061728395,37.803703703703704,0)" xlink:href="#Z"/><use transform="matrix(0.0728395061728395,0,0,0.0728395061728395,61.11234567901235,0)" xlink:href="#aa"/><use transform="matrix(0.0728395061728395,0,0,0.0728395061728395,75.68024691358025,0)" xlink:href="#ab"/><use transform="matrix(0.0728395061728395,0,0,0.0728395061728395,94.54567901234569,0)" xlink:href="#Y"/><use transform="matrix(0.0728395061728395,0,0,0.0728395061728395,109.11358024691359,0)" xlink:href="#ac"/><use transform="matrix(0.0728395061728395,0,0,0.0728395061728395,123.68148148148148,0)" xlink:href="#ad"/><use transform="matrix(0.0728395061728395,0,0,0.0728395061728395,138.24938271604938,0)" xlink:href="#X"/><use transform="matrix(0.0728395061728395,0,0,0.0728395061728395,152.81728395061728,0)" xlink:href="#ae"/><use transform="matrix(0.0728395061728395,0,0,0.0728395061728395,168.76913580246912,0)" xlink:href="#af"/><use transform="matrix(0.0728395061728395,0,0,0.0728395061728395,184.72098765432096,0)" xlink:href="#ag"/><use transform="matrix(0.0728395061728395,0,0,0.0728395061728395,203.5864197530864,0)" xlink:href="#ah"/></g><path fill="#a9afb8" d="M233-177c-1 41-23 64-60 70L243 0h-38l-65-103H63V0H30v-248c88 3 205-21 203 71zM63-129c60-2 137 13 137-47 0-61-80-42-137-45v92" id="ai"/><path fill="#a9afb8" d="M100-194c62-1 85 37 85 99 1 63-27 99-86 99S16-35 15-95c0-66 28-99 85-99zM99-20c44 1 53-31 53-75 0-43-8-75-51-75s-53 32-53 75 10 74 51 75" id="aj"/><path fill="#a9afb8" d="M115-194c53 0 69 39 70 98 0 66-23 100-70 100C84 3 66-7 56-30L54 0H23l1-261h32v101c10-23 28-34 59-34zm-8 174c40 0 45-34 45-75 0-40-5-75-45-74-42 0-51 32-51 76 0 43 10 73 51 73" id="ak"/><path fill="#a9afb8" d="M24-231v-30h32v30H24zM24 0v-190h32V0H24" id="al"/><path fill="#a9afb8" d="M117-194c89-4 53 116 60 194h-32v-121c0-31-8-49-39-48C34-167 62-67 57 0H25l-1-190h30c1 10-1 24 2 32 11-22 29-35 61-36" id="am"/><g id="e"><use transform="matrix(0.04248971193415638,0,0,0.04248971193415638,0,0)" xlink:href="#ai"/><use transform="matrix(0.04248971193415638,0,0,0.04248971193415638,11.004835390946502,0)" xlink:href="#aj"/><use transform="matrix(0.04248971193415638,0,0,0.04248971193415638,19.502777777777776,0)" xlink:href="#ak"/><use transform="matrix(0.04248971193415638,0,0,0.04248971193415638,28.000720164609046,0)" xlink:href="#al"/><use transform="matrix(0.04248971193415638,0,0,0.04248971193415638,31.357407407407408,0)" xlink:href="#am"/></g><path fill="#a9afb8" d="M185-189c-5-48-123-54-124 2 14 75 158 14 163 119 3 78-121 87-175 55-17-10-28-26-33-46l33-7c5 56 141 63 141-1 0-78-155-14-162-118-5-82 145-84 179-34 5 7 8 16 11 25" id="an"/><path fill="#a9afb8" d="M96-169c-40 0-48 33-48 73s9 75 48 75c24 0 41-14 43-38l32 2c-6 37-31 61-74 61-59 0-76-41-82-99-10-93 101-131 147-64 4 7 5 14 7 22l-32 3c-4-21-16-35-41-35" id="ao"/><path fill="#a9afb8" d="M106-169C34-169 62-67 57 0H25v-261h32l-1 103c12-21 28-36 61-36 89 0 53 116 60 194h-32v-121c2-32-8-49-39-48" id="ap"/><path fill="#a9afb8" d="M84 4C-5 8 30-112 23-190h32v120c0 31 7 50 39 49 72-2 45-101 50-169h31l1 190h-30c-1-10 1-25-2-33-11 22-28 36-60 37" id="aq"/><g id="f"><use transform="matrix(0.04248971193415638,0,0,0.04248971193415638,0,0)" xlink:href="#an"/><use transform="matrix(0.04248971193415638,0,0,0.04248971193415638,10.19753086419753,0)" xlink:href="#ao"/><use transform="matrix(0.04248971193415638,0,0,0.04248971193415638,17.845679012345677,0)" xlink:href="#ap"/><use transform="matrix(0.04248971193415638,0,0,0.04248971193415638,26.343621399176953,0)" xlink:href="#aq"/></g><path fill="#a9afb8" d="M32 76v-337h29V76H32" id="ar"/><use transform="matrix(0.04248971193415638,0,0,0.04248971193415638,0,0)" xlink:href="#ar" id="g"/><path fill="#a9afb8" d="M240 0l2-218c-23 76-54 145-80 218h-23L58-218 59 0H30v-248h44l77 211c21-75 51-140 76-211h43V0h-30" id="as"/><path fill="#a9afb8" d="M141-36C126-15 110 5 73 4 37 3 15-17 15-53c-1-64 63-63 125-63 3-35-9-54-41-54-24 1-41 7-42 31l-33-3c5-37 33-52 76-52 45 0 72 20 72 64v82c-1 20 7 32 28 27v20c-31 9-61-2-59-35zM48-53c0 20 12 33 32 33 41-3 63-29 60-74-43 2-92-5-92 41" id="at"/><path fill="#a9afb8" d="M179-190L93 31C79 59 56 82 12 73V49c39 6 53-20 64-50L1-190h34L92-34l54-156h33" id="au"/><g id="h"><use transform="matrix(0.04248971193415638,0,0,0.04248971193415638,0,0)" xlink:href="#as"/><use transform="matrix(0.04248971193415638,0,0,0.04248971193415638,12.704423868312757,0)" xlink:href="#at"/><use transform="matrix(0.04248971193415638,0,0,0.04248971193415638,21.20236625514403,0)" xlink:href="#au"/></g><path fill="#a9afb8" d="M54-142c48-35 137-8 131 61C196 18 31 33 14-55l32-4c7 23 22 37 52 37 35-1 51-22 54-58 4-55-73-65-99-34H22l8-134h141v27H59" id="av"/><path fill="#a9afb8" d="M68-38c1 34 0 65-14 84H32c9-13 17-26 17-46H33v-38h35" id="aw"/><g id="i"><use transform="matrix(0.04248971193415638,0,0,0.04248971193415638,0,0)" xlink:href="#av"/><use transform="matrix(0.04248971193415638,0,0,0.04248971193415638,8.497942386831275,0)" xlink:href="#aw"/></g><path fill="#a9afb8" d="M101-251c82-7 93 87 43 132L82-64C71-53 59-42 53-27h129V0H18c2-99 128-94 128-182 0-28-16-43-45-43s-46 15-49 41l-32-3c6-41 34-60 81-64" id="ax"/><path fill="#a9afb8" d="M101-251c68 0 85 55 85 127S166 4 100 4C33 4 14-52 14-124c0-73 17-127 87-127zm-1 229c47 0 54-49 54-102s-4-102-53-102c-51 0-55 48-55 102 0 53 5 102 54 102" id="ay"/><path fill="#a9afb8" d="M126-127c33 6 58 20 58 59 0 88-139 92-164 29-3-8-5-16-6-25l32-3c6 27 21 44 54 44 32 0 52-15 52-46 0-38-36-46-79-43v-28c39 1 72-4 72-42 0-27-17-43-46-43-28 0-47 15-49 41l-32-3c6-42 35-63 81-64 48-1 79 21 79 65 0 36-21 52-52 59" id="az"/><g id="j"><use transform="matrix(0.04248971193415638,0,0,0.04248971193415638,0,0)" xlink:href="#ax"/><use transform="matrix(0.04248971193415638,0,0,0.04248971193415638,8.497942386831275,0)" xlink:href="#ay"/><use transform="matrix(0.04248971193415638,0,0,0.04248971193415638,16.99588477366255,0)" xlink:href="#ax"/><use transform="matrix(0.04248971193415638,0,0,0.04248971193415638,25.493827160493822,0)" xlink:href="#az"/></g><path fill="#3a414a" d="M205 0l-28-72H64L36 0H1l101-248h38L239 0h-34zm-38-99l-47-123c-12 45-31 82-46 123h93" id="aA"/><path fill="#3a414a" d="M84 4C-5 8 30-112 23-190h32v120c0 31 7 50 39 49 72-2 45-101 50-169h31l1 190h-30c-1-10 1-25-2-33-11 22-28 36-60 37" id="aB"/><path fill="#3a414a" d="M135-143c-3-34-86-38-87 0 15 53 115 12 119 90S17 21 10-45l28-5c4 36 97 45 98 0-10-56-113-15-118-90-4-57 82-63 122-42 12 7 21 19 24 35" id="aC"/><path fill="#3a414a" d="M206 0h-36l-40-164L89 0H53L-1-190h32L70-26l43-164h34l41 164 42-164h31" id="aD"/><path fill="#3a414a" d="M141-36C126-15 110 5 73 4 37 3 15-17 15-53c-1-64 63-63 125-63 3-35-9-54-41-54-24 1-41 7-42 31l-33-3c5-37 33-52 76-52 45 0 72 20 72 64v82c-1 20 7 32 28 27v20c-31 9-61-2-59-35zM48-53c0 20 12 33 32 33 41-3 63-29 60-74-43 2-92-5-92 41" id="aE"/><path fill="#3a414a" d="M106-169C34-169 62-67 57 0H25v-261h32l-1 103c12-21 28-36 61-36 89 0 53 116 60 194h-32v-121c2-32-8-49-39-48" id="aF"/><path fill="#3a414a" d="M24 0v-261h32V0H24" id="aG"/><g id="k"><use transform="matrix(0.05617283950617275,0,0,0.05617283950617275,0,0)" xlink:href="#aA"/><use transform="matrix(0.05617283950617275,0,0,0.05617283950617275,13.48148148148146,0)" xlink:href="#aB"/><use transform="matrix(0.05617283950617275,0,0,0.05617283950617275,24.716049382716008,0)" xlink:href="#aC"/><use transform="matrix(0.05617283950617275,0,0,0.05617283950617275,34.8271604938271,0)" xlink:href="#aD"/><use transform="matrix(0.05617283950617275,0,0,0.05617283950617275,49.37592592592584,0)" xlink:href="#aE"/><use transform="matrix(0.05617283950617275,0,0,0.05617283950617275,60.61049382716038,0)" xlink:href="#aF"/><use transform="matrix(0.05617283950617275,0,0,0.05617283950617275,71.84506172839494,0)" xlink:href="#aG"/></g><path fill="#3a414a" d="M85-194c31 0 48 13 60 33l-1-100h32l1 261h-30c-2-10 0-23-3-31C134-8 116 4 85 4 32 4 16-35 15-94c0-66 23-100 70-100zm9 24c-40 0-46 34-46 75 0 40 6 74 45 74 42 0 51-32 51-76 0-42-9-74-50-73" id="aH"/><path fill="#3a414a" d="M100-194c63 0 86 42 84 106H49c0 40 14 67 53 68 26 1 43-12 49-29l28 8c-11 28-37 45-77 45C44 4 14-33 15-96c1-61 26-98 85-98zm52 81c6-60-76-77-97-28-3 7-6 17-6 28h103" id="aI"/><path fill="#3a414a" d="M114-163C36-179 61-72 57 0H25l-1-190h30c1 12-1 29 2 39 6-27 23-49 58-41v29" id="aJ"/><g id="l"><use transform="matrix(0.05617283950617275,0,0,0.05617283950617275,0,0)" xlink:href="#aH"/><use transform="matrix(0.05617283950617275,0,0,0.05617283950617275,11.23456790123455,0)" xlink:href="#aI"/><use transform="matrix(0.05617283950617275,0,0,0.05617283950617275,22.4691358024691,0)" xlink:href="#aJ"/></g><path fill="#3a414a" d="M30-248c87 1 191-15 191 75 0 78-77 80-158 76V0H30v-248zm33 125c57 0 124 11 124-50 0-59-68-47-124-48v98" id="aK"/><path fill="#3a414a" d="M24-231v-30h32v30H24zM24 0v-190h32V0H24" id="aL"/><path fill="#3a414a" d="M9 0v-24l116-142H16v-24h144v24L44-24h123V0H9" id="aM"/><g id="m"><use transform="matrix(0.05617283950617275,0,0,0.05617283950617275,0,0)" xlink:href="#aK"/><use transform="matrix(0.05617283950617275,0,0,0.05617283950617275,13.48148148148146,0)" xlink:href="#aL"/><use transform="matrix(0.05617283950617275,0,0,0.05617283950617275,17.919135802469107,0)" xlink:href="#aM"/><use transform="matrix(0.05617283950617275,0,0,0.05617283950617275,28.0302469135802,0)" xlink:href="#aM"/><use transform="matrix(0.05617283950617275,0,0,0.05617283950617275,38.14135802469129,0)" xlink:href="#aE"/></g><path fill="#3a414a" d="M0 4l72-265h28L28 4H0" id="aN"/><use transform="matrix(0.05617283950617275,0,0,0.05617283950617275,0,0)" xlink:href="#aN" id="n"/><path fill="#3a414a" d="M160-131c35 5 61 23 61 61C221 17 115-2 30 0v-248c76 3 177-17 177 60 0 33-19 50-47 57zm-97-11c50-1 110 9 110-42 0-47-63-36-110-37v79zm0 115c55-2 124 14 124-45 0-56-70-42-124-44v89" id="aO"/><path fill="#3a414a" d="M59-47c-2 24 18 29 38 22v24C64 9 27 4 27-40v-127H5v-23h24l9-43h21v43h35v23H59v120" id="aP"/><path fill="#3a414a" d="M117-194c89-4 53 116 60 194h-32v-121c0-31-8-49-39-48C34-167 62-67 57 0H25l-1-190h30c1 10-1 24 2 32 11-22 29-35 61-36" id="aQ"/><path fill="#3a414a" d="M177-190C167-65 218 103 67 71c-23-6-38-20-44-43l32-5c15 47 100 32 89-28v-30C133-14 115 1 83 1 29 1 15-40 15-95c0-56 16-97 71-98 29-1 48 16 59 35 1-10 0-23 2-32h30zM94-22c36 0 50-32 50-73 0-42-14-75-50-75-39 0-46 34-46 75s6 73 46 73" id="aR"/><g id="o"><use transform="matrix(0.05617283950617275,0,0,0.05617283950617275,0,0)" xlink:href="#aO"/><use transform="matrix(0.05617283950617275,0,0,0.05617283950617275,13.48148148148146,0)" xlink:href="#aI"/><use transform="matrix(0.05617283950617275,0,0,0.05617283950617275,24.716049382716008,0)" xlink:href="#aC"/><use transform="matrix(0.05617283950617275,0,0,0.05617283950617275,34.8271604938271,0)" xlink:href="#aP"/><use transform="matrix(0.05617283950617275,0,0,0.05617283950617275,40.44444444444438,0)" xlink:href="#aI"/><use transform="matrix(0.05617283950617275,0,0,0.05617283950617275,51.67901234567893,0)" xlink:href="#aG"/><use transform="matrix(0.05617283950617275,0,0,0.05617283950617275,56.116666666666575,0)" xlink:href="#aG"/><use transform="matrix(0.05617283950617275,0,0,0.05617283950617275,60.55432098765423,0)" xlink:href="#aB"/><use transform="matrix(0.05617283950617275,0,0,0.05617283950617275,71.78888888888878,0)" xlink:href="#aQ"/><use transform="matrix(0.05617283950617275,0,0,0.05617283950617275,83.02345679012333,0)" xlink:href="#aR"/></g><path fill="#3a414a" d="M266 0h-40l-56-210L115 0H75L2-248h35L96-30l15-64 43-154h32l59 218 59-218h35" id="aS"/><g id="p"><use transform="matrix(0.05617283950617275,0,0,0.05617283950617275,0,0)" xlink:href="#aS"/><use transform="matrix(0.05617283950617275,0,0,0.05617283950617275,18.649382716049352,0)" xlink:href="#aI"/><use transform="matrix(0.05617283950617275,0,0,0.05617283950617275,29.883950617283904,0)" xlink:href="#aL"/><use transform="matrix(0.05617283950617275,0,0,0.05617283950617275,34.32160493827155,0)" xlink:href="#aP"/><use transform="matrix(0.05617283950617275,0,0,0.05617283950617275,39.938888888888826,0)" xlink:href="#aI"/><use transform="matrix(0.05617283950617275,0,0,0.05617283950617275,51.173456790123375,0)" xlink:href="#aJ"/></g><path fill="#3a414a" d="M210-169c-67 3-38 105-44 169h-31v-121c0-29-5-50-35-48C34-165 62-65 56 0H25l-1-190h30c1 10-1 24 2 32 10-44 99-50 107 0 11-21 27-35 58-36 85-2 47 119 55 194h-31v-121c0-29-5-49-35-48" id="aT"/><g id="q"><use transform="matrix(0.05617283950617275,0,0,0.05617283950617275,0,0)" xlink:href="#aM"/><use transform="matrix(0.05617283950617275,0,0,0.05617283950617275,10.111111111111095,0)" xlink:href="#aB"/><use transform="matrix(0.05617283950617275,0,0,0.05617283950617275,21.345679012345645,0)" xlink:href="#aT"/></g><path fill="#3a414a" d="M143 0L79-87 56-68V0H24v-261h32v163l83-92h37l-77 82L181 0h-38" id="aU"/><path fill="#3a414a" d="M100-194c62-1 85 37 85 99 1 63-27 99-86 99S16-35 15-95c0-66 28-99 85-99zM99-20c44 1 53-31 53-75 0-43-8-75-51-75s-53 32-53 75 10 74 51 75" id="aV"/><path fill="#3a414a" d="M115-194c53 0 69 39 70 98 0 66-23 100-70 100C84 3 66-7 56-30L54 0H23l1-261h32v101c10-23 28-34 59-34zm-8 174c40 0 45-34 45-75 0-40-5-75-45-74-42 0-51 32-51 76 0 43 10 73 51 73" id="aW"/><g id="r"><use transform="matrix(0.05617283950617275,0,0,0.05617283950617275,0,0)" xlink:href="#aS"/><use transform="matrix(0.05617283950617275,0,0,0.05617283950617275,18.312345679012317,0)" xlink:href="#aE"/><use transform="matrix(0.05617283950617275,0,0,0.05617283950617275,29.546913580246866,0)" xlink:href="#aJ"/><use transform="matrix(0.05617283950617275,0,0,0.05617283950617275,36.231481481481424,0)" xlink:href="#aI"/><use transform="matrix(0.05617283950617275,0,0,0.05617283950617275,47.46604938271597,0)" xlink:href="#aQ"/><use transform="matrix(0.05617283950617275,0,0,0.05617283950617275,58.70061728395053,0)" xlink:href="#aU"/><use transform="matrix(0.05617283950617275,0,0,0.05617283950617275,68.81172839506162,0)" xlink:href="#aV"/><use transform="matrix(0.05617283950617275,0,0,0.05617283950617275,80.04629629629618,0)" xlink:href="#aJ"/><use transform="matrix(0.05617283950617275,0,0,0.05617283950617275,86.73086419753074,0)" xlink:href="#aW"/></g><path fill="#333" d="M266 0h-40l-56-210L115 0H75L2-248h35L96-30l15-64 43-154h32l59 218 59-218h35" id="aX"/><path fill="#333" d="M24-231v-30h32v30H24zM24 0v-190h32V0H24" id="aY"/><path fill="#333" d="M114-163C36-179 61-72 57 0H25l-1-190h30c1 12-1 29 2 39 6-27 23-49 58-41v29" id="aZ"/><g id="s"><use transform="matrix(0.05617283950617275,0,0,0.05617283950617275,0,0)" xlink:href="#aX"/><use transform="matrix(0.05617283950617275,0,0,0.05617283950617275,18.649382716049352,0)" xlink:href="#P"/><use transform="matrix(0.05617283950617275,0,0,0.05617283950617275,29.883950617283904,0)" xlink:href="#aY"/><use transform="matrix(0.05617283950617275,0,0,0.05617283950617275,34.32160493827155,0)" xlink:href="#T"/><use transform="matrix(0.05617283950617275,0,0,0.05617283950617275,39.938888888888826,0)" xlink:href="#P"/><use transform="matrix(0.05617283950617275,0,0,0.05617283950617275,51.173456790123375,0)" xlink:href="#aZ"/></g><path fill="#333" d="M141-36C126-15 110 5 73 4 37 3 15-17 15-53c-1-64 63-63 125-63 3-35-9-54-41-54-24 1-41 7-42 31l-33-3c5-37 33-52 76-52 45 0 72 20 72 64v82c-1 20 7 32 28 27v20c-31 9-61-2-59-35zM48-53c0 20 12 33 32 33 41-3 63-29 60-74-43 2-92-5-92 41" id="ba"/><path fill="#333" d="M135-143c-3-34-86-38-87 0 15 53 115 12 119 90S17 21 10-45l28-5c4 36 97 45 98 0-10-56-113-15-118-90-4-57 82-63 122-42 12 7 21 19 24 35" id="bb"/><g id="t"><use transform="matrix(0.05617283950617275,0,0,0.05617283950617275,0,0)" xlink:href="#ba"/><use transform="matrix(0.05617283950617275,0,0,0.05617283950617275,11.23456790123455,0)" xlink:href="#R"/><use transform="matrix(0.05617283950617275,0,0,0.05617283950617275,15.672222222222198,0)" xlink:href="#bb"/></g><path fill="#333" d="M143 4C61 4 22-44 18-125c-5-107 100-154 193-111 17 8 29 25 37 43l-32 9c-13-25-37-40-76-40-61 0-88 39-88 99 0 61 29 100 91 101 35 0 62-11 79-27v-45h-74v-28h105v86C228-13 192 4 143 4" id="bc"/><g id="u"><use transform="matrix(0.05617283950617275,0,0,0.05617283950617275,0,0)" xlink:href="#bc"/><use transform="matrix(0.05617283950617275,0,0,0.05617283950617275,15.72839506172837,0)" xlink:href="#ba"/><use transform="matrix(0.05617283950617275,0,0,0.05617283950617275,26.96296296296292,0)" xlink:href="#bb"/><use transform="matrix(0.05617283950617275,0,0,0.05617283950617275,37.07407407407401,0)" xlink:href="#T"/></g><path fill="#3a414a" d="M233-177c-1 41-23 64-60 70L243 0h-38l-65-103H63V0H30v-248c88 3 205-21 203 71zM63-129c60-2 137 13 137-47 0-61-80-42-137-45v92" id="bd"/><g id="v"><use transform="matrix(0.05617283950617275,0,0,0.05617283950617275,0,0)" xlink:href="#bd"/><use transform="matrix(0.05617283950617275,0,0,0.05617283950617275,14.548765432098742,0)" xlink:href="#aI"/><use transform="matrix(0.05617283950617275,0,0,0.05617283950617275,25.783333333333292,0)" xlink:href="#aR"/><use transform="matrix(0.05617283950617275,0,0,0.05617283950617275,37.017901234567844,0)" xlink:href="#aL"/><use transform="matrix(0.05617283950617275,0,0,0.05617283950617275,41.45555555555549,0)" xlink:href="#aC"/><use transform="matrix(0.05617283950617275,0,0,0.05617283950617275,51.566666666666585,0)" xlink:href="#aP"/><use transform="matrix(0.05617283950617275,0,0,0.05617283950617275,57.18395061728386,0)" xlink:href="#aJ"/><use transform="matrix(0.05617283950617275,0,0,0.05617283950617275,63.86851851851842,0)" xlink:href="#aL"/><use transform="matrix(0.05617283950617275,0,0,0.05617283950617275,68.30617283950608,0)" xlink:href="#aI"/><use transform="matrix(0.05617283950617275,0,0,0.05617283950617275,79.54074074074063,0)" xlink:href="#aJ"/><use transform="matrix(0.05617283950617275,0,0,0.05617283950617275,86.22530864197519,0)" xlink:href="#aB"/><use transform="matrix(0.05617283950617275,0,0,0.05617283950617275,97.45987654320975,0)" xlink:href="#aQ"/><use transform="matrix(0.05617283950617275,0,0,0.05617283950617275,108.6944444444443,0)" xlink:href="#aR"/></g><path fill="#3a414a" d="M190 0L58-211 59 0H30v-248h39L202-35l-2-213h31V0h-41" id="be"/><g id="w"><use transform="matrix(0.05617283950617275,0,0,0.05617283950617275,0,0)" xlink:href="#be"/><use transform="matrix(0.05617283950617275,0,0,0.05617283950617275,14.548765432098742,0)" xlink:href="#aI"/><use transform="matrix(0.05617283950617275,0,0,0.05617283950617275,25.783333333333292,0)" xlink:href="#aL"/><use transform="matrix(0.05617283950617275,0,0,0.05617283950617275,30.22098765432094,0)" xlink:href="#aQ"/></g><g id="x"><use transform="matrix(0.05617283950617275,0,0,0.05617283950617275,0,0)" xlink:href="#be"/><use transform="matrix(0.05617283950617275,0,0,0.05617283950617275,14.548765432098742,0)" xlink:href="#aV"/></g><path fill="#3a414a" d="M137-103V0h-34v-103L8-248h37l75 118 75-118h37" id="bf"/><g id="y"><use transform="matrix(0.05617283950617275,0,0,0.05617283950617275,0,0)" xlink:href="#bf"/><use transform="matrix(0.05617283950617275,0,0,0.05617283950617275,11.627777777777759,0)" xlink:href="#aI"/><use transform="matrix(0.05617283950617275,0,0,0.05617283950617275,22.862345679012307,0)" xlink:href="#aC"/></g><path fill="#3a414a" d="M100-194c62-1 85 37 85 99 1 63-27 99-86 99S16-35 15-95c0-66 28-99 85-99zM99-20c44 1 53-31 53-75 0-43-8-75-51-75s-53 32-53 75 10 74 51 75zm22-194v-33h29v33h-29zm-69 0v-33h29v33H52" id="bg"/><path fill="#3a414a" d="M96-169c-40 0-48 33-48 73s9 75 48 75c24 0 41-14 43-38l32 2c-6 37-31 61-74 61-59 0-76-41-82-99-10-93 101-131 147-64 4 7 5 14 7 22l-32 3c-4-21-16-35-41-35" id="bh"/><g id="z"><use transform="matrix(0.05617283950617275,0,0,0.05617283950617275,0,0)" xlink:href="#aK"/><use transform="matrix(0.05617283950617275,0,0,0.05617283950617275,13.48148148148146,0)" xlink:href="#aI"/><use transform="matrix(0.05617283950617275,0,0,0.05617283950617275,24.716049382716008,0)" xlink:href="#aJ"/><use transform="matrix(0.05617283950617275,0,0,0.05617283950617275,31.400617283950567,0)" xlink:href="#aC"/><use transform="matrix(0.05617283950617275,0,0,0.05617283950617275,41.51172839506166,0)" xlink:href="#bg"/><use transform="matrix(0.05617283950617275,0,0,0.05617283950617275,52.74629629629621,0)" xlink:href="#aQ"/><use transform="matrix(0.05617283950617275,0,0,0.05617283950617275,63.98086419753075,0)" xlink:href="#aG"/><use transform="matrix(0.05617283950617275,0,0,0.05617283950617275,68.4185185185184,0)" xlink:href="#aL"/><use transform="matrix(0.05617283950617275,0,0,0.05617283950617275,72.85617283950604,0)" xlink:href="#bh"/><use transform="matrix(0.05617283950617275,0,0,0.05617283950617275,82.96728395061714,0)" xlink:href="#aF"/><use transform="matrix(0.05617283950617275,0,0,0.05617283950617275,94.2018518518517,0)" xlink:href="#aI"/></g><path fill="#3a414a" d="M30-248c118-7 216 8 213 122C240-48 200 0 122 0H30v-248zM63-27c89 8 146-16 146-99s-60-101-146-95v194" id="bi"/><g id="A"><use transform="matrix(0.05617283950617275,0,0,0.05617283950617275,0,0)" xlink:href="#bi"/><use transform="matrix(0.05617283950617275,0,0,0.05617283950617275,14.548765432098742,0)" xlink:href="#aE"/><use transform="matrix(0.05617283950617275,0,0,0.05617283950617275,25.783333333333292,0)" xlink:href="#aP"/><use transform="matrix(0.05617283950617275,0,0,0.05617283950617275,31.400617283950567,0)" xlink:href="#aI"/><use transform="matrix(0.05617283950617275,0,0,0.05617283950617275,42.635185185185115,0)" xlink:href="#aQ"/></g><g id="B"><use transform="matrix(0.05617283950617275,0,0,0.05617283950617275,0,0)" xlink:href="#aS"/><use transform="matrix(0.05617283950617275,0,0,0.05617283950617275,18.312345679012317,0)" xlink:href="#aE"/><use transform="matrix(0.05617283950617275,0,0,0.05617283950617275,29.546913580246866,0)" xlink:href="#aJ"/><use transform="matrix(0.05617283950617275,0,0,0.05617283950617275,36.231481481481424,0)" xlink:href="#aI"/><use transform="matrix(0.05617283950617275,0,0,0.05617283950617275,47.46604938271597,0)" xlink:href="#aQ"/><use transform="matrix(0.05617283950617275,0,0,0.05617283950617275,58.70061728395053,0)" xlink:href="#aU"/><use transform="matrix(0.05617283950617275,0,0,0.05617283950617275,68.81172839506162,0)" xlink:href="#aV"/><use transform="matrix(0.05617283950617275,0,0,0.05617283950617275,80.04629629629618,0)" xlink:href="#aJ"/><use transform="matrix(0.05617283950617275,0,0,0.05617283950617275,86.73086419753074,0)" xlink:href="#aW"/></g><g id="C"><use transform="matrix(0.05617283950617275,0,0,0.05617283950617275,0,0)" xlink:href="#aS"/><use transform="matrix(0.05617283950617275,0,0,0.05617283950617275,18.312345679012317,0)" xlink:href="#aE"/><use transform="matrix(0.05617283950617275,0,0,0.05617283950617275,29.546913580246866,0)" xlink:href="#aJ"/><use transform="matrix(0.05617283950617275,0,0,0.05617283950617275,36.231481481481424,0)" xlink:href="#aI"/><use transform="matrix(0.05617283950617275,0,0,0.05617283950617275,47.46604938271597,0)" xlink:href="#aQ"/><use transform="matrix(0.05617283950617275,0,0,0.05617283950617275,58.70061728395053,0)" xlink:href="#aU"/><use transform="matrix(0.05617283950617275,0,0,0.05617283950617275,68.81172839506162,0)" xlink:href="#aV"/><use transform="matrix(0.05617283950617275,0,0,0.05617283950617275,80.04629629629618,0)" xlink:href="#aJ"/><use transform="matrix(0.05617283950617275,0,0,0.05617283950617275,86.73086419753074,0)" xlink:href="#aW"/></g><path fill="#3a414a" d="M108 0H70L1-190h34L89-25l56-165h34" id="bj"/><path fill="#3a414a" d="M141-36C126-15 110 5 73 4 37 3 15-17 15-53c-1-64 63-63 125-63 3-35-9-54-41-54-24 1-41 7-42 31l-33-3c5-37 33-52 76-52 45 0 72 20 72 64v82c-1 20 7 32 28 27v20c-31 9-61-2-59-35zM48-53c0 20 12 33 32 33 41-3 63-29 60-74-43 2-92-5-92 41zm70-161v-33h29v33h-29zm-69 0v-33h29v33H49" id="bk"/><path fill="#3a414a" d="M103-251c84 0 111 97 45 133-19 10-37 24-39 52H78c0-63 77-55 77-114 0-30-21-42-52-43-32 0-53 17-56 46l-32-2c7-45 34-72 88-72zM77 0v-35h34V0H77" id="bl"/><g id="D"><use transform="matrix(0.05617283950617275,0,0,0.05617283950617275,0,0)" xlink:href="#bj"/><use transform="matrix(0.05617283950617275,0,0,0.05617283950617275,10.111111111111095,0)" xlink:href="#aV"/><use transform="matrix(0.05617283950617275,0,0,0.05617283950617275,21.345679012345645,0)" xlink:href="#aG"/><use transform="matrix(0.05617283950617275,0,0,0.05617283950617275,25.783333333333292,0)" xlink:href="#aG"/><use transform="matrix(0.05617283950617275,0,0,0.05617283950617275,30.22098765432094,0)" xlink:href="#aC"/><use transform="matrix(0.05617283950617275,0,0,0.05617283950617275,40.332098765432036,0)" xlink:href="#aP"/><use transform="matrix(0.05617283950617275,0,0,0.05617283950617275,45.949382716049314,0)" xlink:href="#bk"/><use transform="matrix(0.05617283950617275,0,0,0.05617283950617275,57.18395061728386,0)" xlink:href="#aQ"/><use transform="matrix(0.05617283950617275,0,0,0.05617283950617275,68.41851851851841,0)" xlink:href="#aH"/><use transform="matrix(0.05617283950617275,0,0,0.05617283950617275,79.65308641975297,0)" xlink:href="#aL"/><use transform="matrix(0.05617283950617275,0,0,0.05617283950617275,84.09074074074061,0)" xlink:href="#aR"/><use transform="matrix(0.05617283950617275,0,0,0.05617283950617275,95.32530864197517,0)" xlink:href="#bl"/></g><g id="E"><use transform="matrix(0.05617283950617275,0,0,0.05617283950617275,0,0)" xlink:href="#aO"/><use transform="matrix(0.05617283950617275,0,0,0.05617283950617275,13.48148148148146,0)" xlink:href="#aI"/><use transform="matrix(0.05617283950617275,0,0,0.05617283950617275,24.716049382716008,0)" xlink:href="#aC"/><use transform="matrix(0.05617283950617275,0,0,0.05617283950617275,34.8271604938271,0)" xlink:href="#aP"/><use transform="matrix(0.05617283950617275,0,0,0.05617283950617275,40.44444444444438,0)" xlink:href="#aI"/><use transform="matrix(0.05617283950617275,0,0,0.05617283950617275,51.67901234567893,0)" xlink:href="#aG"/><use transform="matrix(0.05617283950617275,0,0,0.05617283950617275,56.116666666666575,0)" xlink:href="#aG"/><use transform="matrix(0.05617283950617275,0,0,0.05617283950617275,60.55432098765423,0)" xlink:href="#aB"/><use transform="matrix(0.05617283950617275,0,0,0.05617283950617275,71.78888888888878,0)" xlink:href="#aQ"/><use transform="matrix(0.05617283950617275,0,0,0.05617283950617275,83.02345679012333,0)" xlink:href="#aR"/></g><path fill="#3a414a" d="M101-234c-31-9-42 10-38 44h38v23H63V0H32v-167H5v-23h27c-7-52 17-82 69-68v24" id="bm"/><g id="F"><use transform="matrix(0.05617283950617275,0,0,0.05617283950617275,0,0)" xlink:href="#aE"/><use transform="matrix(0.05617283950617275,0,0,0.05617283950617275,11.23456790123455,0)" xlink:href="#aB"/><use transform="matrix(0.05617283950617275,0,0,0.05617283950617275,22.4691358024691,0)" xlink:href="#bm"/><use transform="matrix(0.05617283950617275,0,0,0.05617283950617275,28.086419753086375,0)" xlink:href="#aR"/><use transform="matrix(0.05617283950617275,0,0,0.05617283950617275,39.32098765432092,0)" xlink:href="#aI"/><use transform="matrix(0.05617283950617275,0,0,0.05617283950617275,50.55555555555547,0)" xlink:href="#aW"/><use transform="matrix(0.05617283950617275,0,0,0.05617283950617275,61.79012345679001,0)" xlink:href="#aI"/><use transform="matrix(0.05617283950617275,0,0,0.05617283950617275,73.02469135802457,0)" xlink:href="#aQ"/></g><path fill="#3a414a" d="M30 0v-248h33v221h125V0H30" id="bn"/><g id="G"><use transform="matrix(0.05617283950617275,0,0,0.05617283950617275,0,0)" xlink:href="#bn"/><use transform="matrix(0.05617283950617275,0,0,0.05617283950617275,11.23456790123455,0)" xlink:href="#aL"/><use transform="matrix(0.05617283950617275,0,0,0.05617283950617275,15.672222222222198,0)" xlink:href="#bj"/><use transform="matrix(0.05617283950617275,0,0,0.05617283950617275,25.783333333333292,0)" xlink:href="#aI"/><use transform="matrix(0.05617283950617275,0,0,0.05617283950617275,37.017901234567844,0)" xlink:href="#aP"/><use transform="matrix(0.05617283950617275,0,0,0.05617283950617275,42.63518518518512,0)" xlink:href="#aJ"/><use transform="matrix(0.05617283950617275,0,0,0.05617283950617275,49.31975308641968,0)" xlink:href="#aE"/><use transform="matrix(0.05617283950617275,0,0,0.05617283950617275,60.55432098765423,0)" xlink:href="#bh"/><use transform="matrix(0.05617283950617275,0,0,0.05617283950617275,70.66543209876532,0)" xlink:href="#aU"/><use transform="matrix(0.05617283950617275,0,0,0.05617283950617275,80.77654320987642,0)" xlink:href="#aL"/><use transform="matrix(0.05617283950617275,0,0,0.05617283950617275,85.21419753086407,0)" xlink:href="#aQ"/><use transform="matrix(0.05617283950617275,0,0,0.05617283950617275,96.44876543209863,0)" xlink:href="#aR"/></g><g id="H"><use transform="matrix(0.05617283950617275,0,0,0.05617283950617275,0,0)" xlink:href="#aA"/><use transform="matrix(0.05617283950617275,0,0,0.05617283950617275,13.48148148148146,0)" xlink:href="#aQ"/><use transform="matrix(0.05617283950617275,0,0,0.05617283950617275,24.716049382716008,0)" xlink:href="#aT"/><use transform="matrix(0.05617283950617275,0,0,0.05617283950617275,41.51172839506166,0)" xlink:href="#aI"/><use transform="matrix(0.05617283950617275,0,0,0.05617283950617275,52.74629629629621,0)" xlink:href="#aG"/><use transform="matrix(0.05617283950617275,0,0,0.05617283950617275,57.183950617283855,0)" xlink:href="#aH"/><use transform="matrix(0.05617283950617275,0,0,0.05617283950617275,68.41851851851841,0)" xlink:href="#aI"/><use transform="matrix(0.05617283950617275,0,0,0.05617283950617275,79.65308641975297,0)" xlink:href="#aQ"/></g></defs></g></svg>